<svg width="1542" height="512" viewBox="0 0 1542 512" fill="none" xmlns="http://www.w3.org/2000/svg">
<rect width="512" height="512" rx="64" fill="#3C67D2"/>
<path d="M153.76 295.52C153.76 307.296 162.208 313.184 179.104 313.184C196.171 313.184 204.704 307.893 204.704 297.312C204.704 291.68 201.803 287.072 196 283.488C190.197 279.904 183.115 276.917 174.752 274.528C166.56 272.139 158.283 269.408 149.92 266.336C141.728 263.093 134.731 258.144 128.928 251.488C123.125 244.661 120.224 236.213 120.224 226.144C120.224 183.307 147.787 161.888 202.912 161.888C223.051 161.888 238.24 165.728 248.48 173.408C258.891 180.917 264.096 191.413 264.096 204.896C264.096 209.845 263.413 214.624 262.048 219.232C260.853 223.669 259.573 226.827 258.208 228.704L256.16 231.776H210.848C214.603 227.851 216.48 222.901 216.48 216.928C216.48 205.835 209.227 200.288 194.72 200.288C176.459 200.288 167.328 206.091 167.328 217.696C167.328 223.499 170.229 228.107 176.032 231.52C181.835 234.933 188.832 237.664 197.024 239.712C205.387 241.589 213.749 243.979 222.112 246.88C230.475 249.781 237.557 254.645 243.36 261.472C249.163 268.128 252.064 276.832 252.064 287.584C252.064 309.259 245.579 325.387 232.608 335.968C219.637 346.379 199.669 351.584 172.704 351.584C145.739 351.584 127.307 346.805 117.408 337.248C110.069 330.08 106.4 320.181 106.4 307.552C106.4 302.773 106.912 297.568 107.936 291.936L108.704 287.84H154.784L154.272 290.912C153.931 292.619 153.76 294.155 153.76 295.52ZM359.44 221.28C376.336 221.28 388.197 225.973 395.024 235.36C400.144 242.016 402.704 250.123 402.704 259.68C402.704 263.605 402.277 267.701 401.424 271.968L396.304 300.64C393.403 317.024 385.808 329.653 373.52 338.528C361.403 347.232 346.043 351.584 327.44 351.584C309.008 351.584 294.843 347.915 284.944 340.576C277.093 334.773 273.168 326.667 273.168 316.256C273.168 313.525 273.424 310.709 273.936 307.808L301.072 153.696H344.592L331.536 228.192C338.704 223.584 348.005 221.28 359.44 221.28ZM357.136 275.808C357.307 274.443 357.392 272.565 357.392 270.176C357.392 267.616 356.283 264.971 354.064 262.24C352.016 259.339 347.408 257.888 340.24 257.888C333.243 257.888 328.208 260.021 325.136 264.288L317.712 307.04C319.76 312.16 324.027 314.72 330.512 314.72C343.653 314.72 351.419 308.149 353.808 295.008L357.136 275.808Z" fill="white"/>
<path d="M589.405 196V70.048H625.309C634.781 70.048 643.037 71.264 650.077 73.696C657.117 76 662.621 79.84 666.589 85.216C670.557 90.592 672.541 97.888 672.541 107.104C672.541 115.936 670.557 123.232 666.589 128.992C662.749 134.624 657.309 138.912 650.269 141.856C643.357 144.672 635.293 146.08 626.077 146.08H605.341V196H589.405ZM605.341 133.024H624.157C635.165 133.024 643.293 130.912 648.541 126.688C653.917 122.464 656.605 115.936 656.605 107.104C656.605 98.016 653.789 91.744 648.157 88.288C642.653 84.704 634.397 82.912 623.389 82.912H605.341V133.024ZM728.22 198.304C720.668 198.304 713.564 196.384 706.908 192.544C700.38 188.704 695.068 183.136 690.972 175.84C687.004 168.544 685.02 159.776 685.02 149.536C685.02 139.04 687.004 130.144 690.972 122.848C695.068 115.552 700.38 109.984 706.908 106.144C713.564 102.304 720.668 100.384 728.22 100.384C735.9 100.384 743.004 102.304 749.532 106.144C756.06 109.984 761.308 115.552 765.276 122.848C769.372 130.144 771.42 139.04 771.42 149.536C771.42 159.776 769.372 168.544 765.276 175.84C761.308 183.136 756.06 188.704 749.532 192.544C743.004 196.384 735.9 198.304 728.22 198.304ZM728.22 185.248C733.596 185.248 738.332 183.776 742.428 180.832C746.524 177.76 749.66 173.536 751.836 168.16C754.012 162.784 755.1 156.576 755.1 149.536C755.1 142.368 754.012 136.096 751.836 130.72C749.66 125.216 746.524 120.992 742.428 118.048C738.332 114.976 733.596 113.44 728.22 113.44C722.844 113.44 718.108 114.976 714.012 118.048C710.044 120.992 706.908 125.216 704.604 130.72C702.428 136.096 701.34 142.368 701.34 149.536C701.34 156.576 702.428 162.784 704.604 168.16C706.908 173.536 710.044 177.76 714.012 180.832C718.108 183.776 722.844 185.248 728.22 185.248ZM810.028 196L784.108 102.688H800.62L814.252 156.64C815.276 160.864 816.236 165.088 817.132 169.312C818.028 173.536 818.86 178.144 819.628 183.136H820.396C821.42 178.144 822.38 173.536 823.276 169.312C824.3 165.088 825.324 160.864 826.348 156.64L840.172 102.688H857.452L871.468 156.64C872.62 160.864 873.644 165.088 874.54 169.312C875.564 173.536 876.588 178.144 877.612 183.136H878.38C879.404 178.144 880.364 173.536 881.26 169.312C882.156 165.088 883.052 160.864 883.948 156.64L897.58 102.688H912.94L887.788 196H867.244L854.764 146.08C853.74 141.728 852.716 137.44 851.692 133.216C850.796 128.864 849.836 123.936 848.812 118.432H848.044C847.148 123.936 846.188 128.864 845.164 133.216C844.268 137.568 843.244 141.856 842.092 146.08L829.612 196H810.028ZM970.318 198.304C961.998 198.304 954.382 196.384 947.47 192.544C940.686 188.576 935.31 183.008 931.342 175.84C927.374 168.544 925.39 159.712 925.39 149.344C925.39 139.232 927.438 130.528 931.534 123.232C935.63 115.936 940.878 110.304 947.278 106.336C953.678 102.368 960.462 100.384 967.63 100.384C975.566 100.384 982.286 102.24 987.79 105.952C993.422 109.536 997.646 114.592 1000.46 121.12C1003.28 127.648 1004.69 135.328 1004.69 144.16C1004.69 145.824 1004.62 147.424 1004.49 148.96C1004.49 150.496 1004.3 152.032 1003.92 153.568H936.718V141.088H990.478C990.478 132.128 988.494 125.28 984.526 120.544C980.686 115.68 975.118 113.248 967.822 113.248C963.598 113.248 959.438 114.464 955.342 116.896C951.246 119.2 947.854 122.976 945.166 128.224C942.606 133.472 941.326 140.448 941.326 149.152C941.326 157.088 942.67 163.744 945.358 169.12C948.174 174.496 951.95 178.592 956.686 181.408C961.422 184.096 966.606 185.44 972.238 185.44C976.718 185.44 980.878 184.8 984.718 183.52C988.686 182.24 992.27 180.512 995.47 178.336L1001.23 188.704C997.134 191.52 992.526 193.824 987.406 195.616C982.414 197.408 976.718 198.304 970.318 198.304ZM1027.74 196V102.688H1040.8L1042.14 119.584H1042.72C1045.79 113.696 1049.63 109.024 1054.24 105.568C1058.85 102.112 1063.84 100.384 1069.22 100.384C1071.26 100.384 1073.06 100.512 1074.59 100.768C1076.13 101.024 1077.66 101.536 1079.2 102.304L1075.74 115.744C1074.34 115.36 1072.99 115.104 1071.71 114.976C1070.56 114.72 1069.02 114.592 1067.1 114.592C1063.14 114.592 1058.98 116.192 1054.62 119.392C1050.4 122.592 1046.69 128.16 1043.49 136.096V196H1027.74ZM1130.26 198.304C1121.94 198.304 1114.32 196.384 1107.41 192.544C1100.62 188.576 1095.25 183.008 1091.28 175.84C1087.31 168.544 1085.33 159.712 1085.33 149.344C1085.33 139.232 1087.38 130.528 1091.47 123.232C1095.57 115.936 1100.82 110.304 1107.22 106.336C1113.62 102.368 1120.4 100.384 1127.57 100.384C1135.5 100.384 1142.22 102.24 1147.73 105.952C1153.36 109.536 1157.58 114.592 1160.4 121.12C1163.22 127.648 1164.62 135.328 1164.62 144.16C1164.62 145.824 1164.56 147.424 1164.43 148.96C1164.43 150.496 1164.24 152.032 1163.86 153.568H1096.66V141.088H1150.42C1150.42 132.128 1148.43 125.28 1144.46 120.544C1140.62 115.68 1135.06 113.248 1127.76 113.248C1123.54 113.248 1119.38 114.464 1115.28 116.896C1111.18 119.2 1107.79 122.976 1105.1 128.224C1102.54 133.472 1101.26 140.448 1101.26 149.152C1101.26 157.088 1102.61 163.744 1105.3 169.12C1108.11 174.496 1111.89 178.592 1116.62 181.408C1121.36 184.096 1126.54 185.44 1132.18 185.44C1136.66 185.44 1140.82 184.8 1144.66 183.52C1148.62 182.24 1152.21 180.512 1155.41 178.336L1161.17 188.704C1157.07 191.52 1152.46 193.824 1147.34 195.616C1142.35 197.408 1136.66 198.304 1130.26 198.304ZM1219.55 198.304C1207.78 198.304 1198.37 194.08 1191.33 185.632C1184.42 177.056 1180.96 165.024 1180.96 149.536C1180.96 139.424 1182.82 130.72 1186.53 123.424C1190.37 116 1195.36 110.304 1201.51 106.336C1207.65 102.368 1214.31 100.384 1221.47 100.384C1226.98 100.384 1231.65 101.344 1235.49 103.264C1239.46 105.056 1243.49 107.68 1247.59 111.136L1246.82 95.2V59.296H1262.75V196H1249.7L1248.35 185.056H1247.78C1244.19 188.64 1239.97 191.776 1235.11 194.464C1230.24 197.024 1225.06 198.304 1219.55 198.304ZM1223.01 185.056C1227.36 185.056 1231.46 183.968 1235.3 181.792C1239.14 179.616 1242.98 176.416 1246.82 172.192V123.424C1242.98 119.84 1239.2 117.344 1235.49 115.936C1231.78 114.4 1228 113.632 1224.16 113.632C1219.17 113.632 1214.63 115.168 1210.53 118.24C1206.56 121.184 1203.36 125.344 1200.93 130.72C1198.5 135.968 1197.28 142.176 1197.28 149.344C1197.28 160.48 1199.52 169.248 1204 175.648C1208.48 181.92 1214.82 185.056 1223.01 185.056ZM1373.9 198.304C1369.55 198.304 1365.07 197.28 1360.46 195.232C1355.85 193.056 1351.44 190.112 1347.21 186.4H1346.64L1345.29 196H1332.62V59.296H1348.36V96.544L1347.98 113.44C1352.2 109.728 1356.81 106.656 1361.8 104.224C1366.92 101.664 1372.04 100.384 1377.16 100.384C1385.23 100.384 1392.01 102.368 1397.52 106.336C1403.02 110.176 1407.18 115.68 1410 122.848C1412.81 129.888 1414.22 138.208 1414.22 147.808C1414.22 158.432 1412.3 167.52 1408.46 175.072C1404.75 182.624 1399.82 188.384 1393.68 192.352C1387.53 196.32 1380.94 198.304 1373.9 198.304ZM1371.21 185.056C1376.33 185.056 1380.88 183.584 1384.84 180.64C1388.94 177.696 1392.14 173.472 1394.44 167.968C1396.75 162.336 1397.9 155.68 1397.9 148C1397.9 141.216 1397.07 135.264 1395.4 130.144C1393.74 124.896 1391.12 120.864 1387.53 118.048C1383.95 115.104 1379.21 113.632 1373.32 113.632C1369.48 113.632 1365.45 114.72 1361.23 116.896C1357.13 118.944 1352.84 122.08 1348.36 126.304V175.264C1352.46 178.848 1356.49 181.408 1360.46 182.944C1364.56 184.352 1368.14 185.056 1371.21 185.056ZM1439.53 236.128C1437.48 236.128 1435.5 235.936 1433.58 235.552C1431.79 235.168 1430.12 234.72 1428.59 234.208L1432.04 221.92C1433.19 222.304 1434.35 222.56 1435.5 222.688C1436.65 222.944 1437.74 223.072 1438.76 223.072C1444.14 223.072 1448.49 221.152 1451.82 217.312C1455.27 213.6 1457.96 208.864 1459.88 203.104L1461.99 196.192L1424.55 102.688H1440.87L1459.88 154.336C1461.42 158.304 1462.95 162.592 1464.49 167.2C1466.03 171.808 1467.5 176.288 1468.91 180.64H1469.67C1471.08 176.288 1472.43 171.872 1473.71 167.392C1475.11 162.784 1476.39 158.432 1477.55 154.336L1494.25 102.688H1509.61L1474.47 203.68C1472.3 209.824 1469.67 215.328 1466.6 220.192C1463.53 225.184 1459.82 229.088 1455.47 231.904C1451.11 234.72 1445.8 236.128 1439.53 236.128Z" fill="#121212"/>
<path d="M631.162 437.304C622.842 437.304 614.65 435.832 606.586 432.888C598.522 429.816 591.29 425.208 584.89 419.064L599.866 400.632C604.346 404.472 609.402 407.48 615.034 409.656C620.794 411.832 626.426 412.92 631.93 412.92C637.818 412.92 642.17 411.832 644.986 409.656C647.93 407.48 649.402 404.536 649.402 400.824C649.402 398.136 648.634 396.024 647.098 394.488C645.69 392.824 643.642 391.352 640.954 390.072C638.266 388.792 635.066 387.384 631.354 385.848L615.034 379.128C610.81 377.208 606.714 374.776 602.746 371.832C598.906 368.76 595.77 365.048 593.338 360.696C591.034 356.216 589.882 350.904 589.882 344.76C589.882 337.848 591.738 331.64 595.45 326.136C599.29 320.504 604.538 316.024 611.194 312.696C617.978 309.24 625.722 307.512 634.426 307.512C641.978 307.512 649.274 308.856 656.314 311.544C663.354 314.232 669.498 318.136 674.746 323.256L659.77 341.496C655.674 338.424 651.45 336.056 647.098 334.392C642.874 332.728 638.65 331.896 634.426 331.896C629.562 331.896 625.658 332.92 622.714 334.968C619.898 336.888 618.49 339.64 618.49 343.224C618.49 345.656 619.322 347.768 620.986 349.56C622.65 351.224 624.954 352.696 627.898 353.976C630.842 355.128 634.042 356.472 637.498 358.008L653.626 364.536C658.746 366.584 663.098 369.144 666.682 372.216C670.394 375.288 673.274 379 675.322 383.352C677.37 387.576 678.394 392.632 678.394 398.52C678.394 405.432 676.538 411.832 672.826 417.72C669.114 423.608 663.738 428.344 656.698 431.928C649.658 435.512 641.146 437.304 631.162 437.304ZM755.64 437.112C743.864 437.112 735.416 433.72 730.296 426.936C725.176 420.024 722.616 411.128 722.616 400.248V361.848H709.752V340.92L724.344 339.768L727.608 310.584H751.032V339.768H773.88V361.848H751.032V399.864C751.032 405.24 752.12 409.144 754.296 411.576C756.6 413.88 759.608 415.032 763.32 415.032C764.856 415.032 766.392 414.904 767.928 414.648C769.464 414.392 770.936 414.008 772.344 413.496L776.952 433.272C774.52 434.296 771.448 435.192 767.736 435.96C764.152 436.728 760.12 437.112 755.64 437.112ZM829.907 472.248C827.091 472.248 824.595 472.056 822.419 471.672C820.371 471.288 818.387 470.712 816.467 469.944L821.459 449.208C822.867 449.592 824.019 449.784 824.915 449.784C825.939 449.912 826.899 449.976 827.795 449.976C832.531 449.976 836.179 448.76 838.739 446.328C841.427 444.024 843.347 441.08 844.499 437.496L845.843 432.504L809.171 339.768H837.587L851.219 380.664C852.627 385.016 853.907 389.432 855.059 393.912C856.211 398.392 857.427 403 858.707 407.736H859.475C860.499 403.256 861.523 398.776 862.547 394.296C863.699 389.688 864.851 385.144 866.003 380.664L877.523 339.768H904.595L871.571 435.96C868.499 443.896 865.171 450.552 861.587 455.928C858.131 461.304 853.843 465.336 848.723 468.024C843.731 470.84 837.459 472.248 829.907 472.248ZM972.272 437.112C965.872 437.112 960.752 435.832 956.912 433.272C953.2 430.584 950.512 426.872 948.848 422.136C947.184 417.272 946.352 411.64 946.352 405.24V300.6H974.576V406.392C974.576 409.464 975.089 411.576 976.113 412.728C977.265 413.752 978.481 414.264 979.76 414.264C980.273 414.264 980.72 414.264 981.104 414.264C981.616 414.136 982.256 414.008 983.024 413.88L986.481 434.808C984.945 435.448 982.961 435.96 980.529 436.344C978.224 436.856 975.472 437.112 972.272 437.112ZM1070.79 437.304C1061.71 437.304 1053.51 435.32 1046.22 431.352C1038.92 427.384 1033.16 421.688 1028.94 414.264C1024.71 406.84 1022.6 397.88 1022.6 387.384C1022.6 377.016 1024.71 368.12 1028.94 360.696C1033.29 353.272 1038.92 347.576 1045.83 343.608C1052.75 339.512 1059.98 337.464 1067.53 337.464C1076.62 337.464 1084.17 339.512 1090.19 343.608C1096.2 347.576 1100.68 353.016 1103.63 359.928C1106.57 366.84 1108.04 374.584 1108.04 383.16C1108.04 385.592 1107.91 388.024 1107.66 390.456C1107.4 392.76 1107.15 394.616 1106.89 396.024H1044.49L1044.11 376.44H1083.85C1083.85 371.448 1082.63 367.352 1080.2 364.152C1077.77 360.824 1073.74 359.16 1068.11 359.16C1065.03 359.16 1062.03 359.992 1059.08 361.656C1056.14 363.32 1053.71 366.2 1051.79 370.296C1049.87 374.392 1048.97 380.088 1049.1 387.384C1049.23 394.552 1050.51 400.184 1052.94 404.28C1055.5 408.376 1058.7 411.32 1062.54 413.112C1066.38 414.776 1070.41 415.608 1074.63 415.608C1078.35 415.608 1081.87 415.096 1085.19 414.072C1088.65 412.92 1092.04 411.384 1095.37 409.464L1104.59 426.744C1099.85 430.072 1094.47 432.696 1088.46 434.616C1082.44 436.408 1076.55 437.304 1070.79 437.304ZM1204.35 437.304C1200.12 437.304 1195.9 436.28 1191.67 434.232C1187.45 432.056 1183.42 428.92 1179.58 424.824H1178.81L1176.51 435H1154.43V300.408H1182.65V333.432L1181.88 348.024C1185.47 344.696 1189.43 342.136 1193.79 340.344C1198.14 338.424 1202.55 337.464 1207.03 337.464C1214.71 337.464 1221.37 339.448 1227 343.416C1232.63 347.384 1236.92 353.016 1239.87 360.312C1242.94 367.48 1244.47 375.928 1244.47 385.656C1244.47 396.536 1242.55 405.88 1238.71 413.688C1234.87 421.368 1229.88 427.256 1223.74 431.352C1217.72 435.32 1211.26 437.304 1204.35 437.304ZM1197.82 414.264C1201.02 414.264 1203.96 413.304 1206.65 411.384C1209.47 409.464 1211.64 406.456 1213.18 402.36C1214.71 398.136 1215.48 392.76 1215.48 386.232C1215.48 380.472 1214.84 375.736 1213.56 372.024C1212.41 368.184 1210.62 365.304 1208.19 363.384C1205.75 361.464 1202.68 360.504 1198.97 360.504C1196.15 360.504 1193.4 361.208 1190.71 362.616C1188.15 363.896 1185.47 366.072 1182.65 369.144V408.12C1185.08 410.296 1187.64 411.896 1190.33 412.92C1193.02 413.816 1195.51 414.264 1197.82 414.264ZM1332.26 437.304C1324.2 437.304 1316.65 435.384 1309.61 431.544C1302.57 427.576 1296.81 421.88 1292.33 414.456C1287.98 406.904 1285.8 397.88 1285.8 387.384C1285.8 376.888 1287.98 367.928 1292.33 360.504C1296.81 352.952 1302.57 347.256 1309.61 343.416C1316.65 339.448 1324.2 337.464 1332.26 337.464C1340.2 337.464 1347.69 339.448 1354.73 343.416C1361.77 347.256 1367.46 352.952 1371.82 360.504C1376.3 367.928 1378.54 376.888 1378.54 387.384C1378.54 397.88 1376.3 406.904 1371.82 414.456C1367.46 421.88 1361.77 427.576 1354.73 431.544C1347.69 435.384 1340.2 437.304 1332.26 437.304ZM1332.26 414.456C1336.1 414.456 1339.3 413.368 1341.86 411.192C1344.55 409.016 1346.54 405.88 1347.82 401.784C1349.1 397.688 1349.74 392.888 1349.74 387.384C1349.74 381.88 1349.1 377.08 1347.82 372.984C1346.54 368.888 1344.55 365.752 1341.86 363.576C1339.3 361.4 1336.1 360.312 1332.26 360.312C1328.3 360.312 1325.03 361.4 1322.47 363.576C1319.91 365.752 1317.99 368.888 1316.71 372.984C1315.43 377.08 1314.79 381.88 1314.79 387.384C1314.79 392.888 1315.43 397.688 1316.71 401.784C1317.99 405.88 1319.91 409.016 1322.47 411.192C1325.03 413.368 1328.3 414.456 1332.26 414.456ZM1409.89 435L1439.08 385.464L1411.62 339.768H1441.96L1450.4 355.128C1451.68 357.816 1452.96 360.568 1454.24 363.384C1455.65 366.072 1457.06 368.76 1458.47 371.448H1459.24C1460.26 368.76 1461.35 366.072 1462.5 363.384C1463.65 360.568 1464.74 357.816 1465.76 355.128L1472.29 339.768H1501.48L1473.83 388.728L1503.2 435H1472.87L1463.65 419.256C1462.12 416.568 1460.58 413.816 1459.04 411C1457.64 408.184 1456.16 405.432 1454.63 402.744H1453.86C1452.71 405.432 1451.49 408.184 1450.21 411C1448.93 413.688 1447.72 416.44 1446.56 419.256L1439.08 435H1409.89Z" fill="#121212"/>
</svg>
