<svg width="512" height="512" viewBox="0 0 512 512" fill="none" xmlns="http://www.w3.org/2000/svg">
<rect width="512" height="512" rx="64" fill="#3C67D2"/>
<path d="M153.76 295.52C153.76 307.296 162.208 313.184 179.104 313.184C196.171 313.184 204.704 307.893 204.704 297.312C204.704 291.68 201.803 287.072 196 283.488C190.197 279.904 183.115 276.917 174.752 274.528C166.56 272.139 158.283 269.408 149.92 266.336C141.728 263.093 134.731 258.144 128.928 251.488C123.125 244.661 120.224 236.213 120.224 226.144C120.224 183.307 147.787 161.888 202.912 161.888C223.051 161.888 238.24 165.728 248.48 173.408C258.891 180.917 264.096 191.413 264.096 204.896C264.096 209.845 263.413 214.624 262.048 219.232C260.853 223.669 259.573 226.827 258.208 228.704L256.16 231.776H210.848C214.603 227.851 216.48 222.901 216.48 216.928C216.48 205.835 209.227 200.288 194.72 200.288C176.459 200.288 167.328 206.091 167.328 217.696C167.328 223.499 170.229 228.107 176.032 231.52C181.835 234.933 188.832 237.664 197.024 239.712C205.387 241.589 213.749 243.979 222.112 246.88C230.475 249.781 237.557 254.645 243.36 261.472C249.163 268.128 252.064 276.832 252.064 287.584C252.064 309.259 245.579 325.387 232.608 335.968C219.637 346.379 199.669 351.584 172.704 351.584C145.739 351.584 127.307 346.805 117.408 337.248C110.069 330.08 106.4 320.181 106.4 307.552C106.4 302.773 106.912 297.568 107.936 291.936L108.704 287.84H154.784L154.272 290.912C153.931 292.619 153.76 294.155 153.76 295.52ZM359.44 221.28C376.336 221.28 388.197 225.973 395.024 235.36C400.144 242.016 402.704 250.123 402.704 259.68C402.704 263.605 402.277 267.701 401.424 271.968L396.304 300.64C393.403 317.024 385.808 329.653 373.52 338.528C361.403 347.232 346.043 351.584 327.44 351.584C309.008 351.584 294.843 347.915 284.944 340.576C277.093 334.773 273.168 326.667 273.168 316.256C273.168 313.525 273.424 310.709 273.936 307.808L301.072 153.696H344.592L331.536 228.192C338.704 223.584 348.005 221.28 359.44 221.28ZM357.136 275.808C357.307 274.443 357.392 272.565 357.392 270.176C357.392 267.616 356.283 264.971 354.064 262.24C352.016 259.339 347.408 257.888 340.24 257.888C333.243 257.888 328.208 260.021 325.136 264.288L317.712 307.04C319.76 312.16 324.027 314.72 330.512 314.72C343.653 314.72 351.419 308.149 353.808 295.008L357.136 275.808Z" fill="white"/>
</svg>
